<?xml version="1.0" encoding="UTF-8"?>
<svg id="_图层_1" xmlns="http://www.w3.org/2000/svg" version="1.1" viewBox="0 0 200 200">
  <!-- Generator: Adobe Illustrator 29.0.1, SVG Export Plug-In . SVG Version: 2.1.0 Build 192)  -->
  <defs>
    <style>
      .st0 {
        fill: #fff;
      }
    </style>
  </defs>
  <path class="st0" d="M172.8,136.3c-9.9-4.1-21.1-1.8-28.7,5.7-3.2,3.2-5.5,7-6.7,11.2H52.1c-11.1,0-20.3-9.1-20.3-20.4v-4.3c0-11.1,9.1-20.4,20.3-20.4h24.5c0,.3.2.6.3.9,4,9.8,13.6,16.2,24.3,16.2s20.8-7.2,24.6-17.1h24.5c21.3,0,38.7-17.4,38.8-38.8v-4.3c0-21.3-17.4-38.8-38.8-38.8H62.6c-2.6-6.7-7.7-12.2-14.6-15.1-9.8-4-21.1-1.8-28.7,5.7-7.6,7.6-9.8,18.8-5.7,28.7,4,9.8,13.6,16.2,24.3,16.2s20.9-7.1,24.6-17.1h87.8c11.1,0,20.4,9.1,20.4,20.4v4.3c0,11.2-9.1,20.4-20.4,20.4h-24.5c-2.5-6.7-7.7-12.2-14.6-15.1-9.9-4-21.2-1.8-28.7,5.7s-4.8,6-6,9.4h-24.5c-21.3,0-38.7,17.4-38.7,38.8v4.3c0,21.3,17.4,38.7,38.7,38.7h86.8c4.3,9.3,13.5,15.3,23.8,15.3s26.3-11.8,26.4-26.3c0-10.8-6.4-20.3-16.2-24.3h0Z"/>
</svg>