<?xml version="1.0" encoding="UTF-8"?>
<svg id="_图层_1" data-name="图层_1" xmlns="http://www.w3.org/2000/svg" version="1.1" viewBox="0 0 208.8 200">
  <!-- Generator: Adobe Illustrator 29.0.1, SVG Export Plug-In . SVG Version: 2.1.0 Build 192)  -->
  <defs>
    <style>
      .st0 {
        fill: #fff;
      }
    </style>
  </defs>
  <path class="st0" d="M127,99.5c0-1.4-1.2-2.6-2.6-2.6h-34c-1.4,0-2.6,1.2-2.6,2.6v83.8c0,1.4,1.2,2.6,2.6,2.6h34c1.4,0,2.6-1.2,2.6-2.6,0,0,0,0,0,0v-83.8ZM193.9,60.9l-26-45.4c-1.2-2.2-3.3-2.4-4.5-.2l-26,45.6c-1.2,2.2-.2,4.5,2.3,4.5h8.4v116.5c0,1.4,1.8,3.9,3.3,3.9h28.8c1.4,0,2-2.5,2-3.9v-116.5h9.6c2.5,0,3.5-2.4,2.3-4.6h0ZM25.7,63.4c0-10.3,8.4-18.7,18.7-18.7s18.7,8.4,18.7,18.7-8.4,18.7-18.7,18.7h0c-10.3,0-18.7-8.4-18.7-18.7ZM45,178c0,5.2-3.3,8.5-8.2,8-4.3-.4-6.6-4.5-6.6-8.9v-43.3c0,3.5-4.3,6.4-7.9,6.4s-7.8-3.4-7.8-6.7v-30.8c-.2-7.4,5.5-13.5,12.9-13.8.3,0,.6,0,1,0h6.4l10.5,18.3,10.5-18.3h6.3c8,0,15.3,5.7,15.3,13.8v30.8c0,3.4-3.9,6.7-7.8,6.7s-7.9-2.9-7.9-6.4v43.3c0,4.3-3,8.4-7.3,8.8-4.3.6-8.2-2.3-8.9-6.6,0-.5,0-1,0-1.5h-.3Z"/>
</svg>