<?xml version="1.0" encoding="UTF-8"?>
<svg id="_图层_1" data-name="图层_1" xmlns="http://www.w3.org/2000/svg" version="1.1" viewBox="0 0 200 200">
  <!-- Generator: Adobe Illustrator 29.0.1, SVG Export Plug-In . SVG Version: 2.1.0 Build 192)  -->
  <defs>
    <style>
      .st0 {
        fill: #fff;
      }
    </style>
  </defs>
  <path class="st0" d="M139.7,154.6c-1.5,0-3-.2-4.5-.5-3.3-.8-6.9-1.8-10.6-3.1-14.1-4.9-29.4-13-44.3-23.5-14.9-10.4-27.8-22-37.2-33.6-2.4-3-4.6-6-6.5-8.8-4.4-6.6-4.2-15.1.3-21.6l8.9-12.7c3.9-5.6,11.6-6.9,17.1-3l15.9,11.1c5.6,3.9,6.9,11.6,3,17.1l-4.7,6.7c6.6,6.2,14,12.2,22.1,17.8,8,5.6,16.2,10.5,24.3,14.7l4.7-6.7c1.9-2.7,4.7-4.5,7.9-5.1,3.2-.6,6.5.2,9.2,2l15.9,11.1c2.7,1.9,4.5,4.7,5.1,7.9.6,3.2-.2,6.5-2,9.2l-8.9,12.8c-3.7,5.2-9.6,8.2-15.7,8.2ZM41.3,66.4l4.3,3c-2,2.9-2.1,6.7-.1,9.7,1.7,2.6,3.7,5.2,5.9,7.9,8.7,10.6,21.2,21.9,35.1,31.6,13.9,9.7,28.7,17.6,41.7,22.2,3.3,1.2,6.5,2.1,9.5,2.8,3.5.8,7-.5,9.1-3.5l8.9-12.7c.3-.5.3-1,.3-1.2,0-.3-.2-.7-.7-1.1l-15.9-11.1c-.5-.3-1-.3-1.2-.3-.3,0-.7.2-1.1.7l-5.6,7.9c-2.5,3.6-7.2,4.8-11.1,2.8-9-4.5-18.2-9.9-27.1-16.2-8.9-6.2-17.1-12.9-24.4-19.9-3.2-3-3.6-7.8-1.1-11.4l5.6-7.9c.5-.8.3-1.8-.4-2.3l-15.9-11.1c-.8-.5-1.8-.3-2.3.4l-8.9,12.7-4.4-3h0Z"/>
  <path class="st0" d="M100,200c-13.5,0-26.6-2.6-38.9-7.9-11.9-5-22.6-12.2-31.8-21.4-9.2-9.2-16.4-19.9-21.4-31.8C2.6,126.6,0,113.5,0,100s2.6-26.6,7.9-38.9c5-11.9,12.2-22.6,21.4-31.8S49.2,12.9,61.1,7.8C73.4,2.6,86.5,0,100,0s26.6,2.6,38.9,7.9c11.9,5,22.6,12.2,31.8,21.4,9.2,9.2,16.4,19.9,21.4,31.8,5.2,12.3,7.9,25.4,7.9,38.9s-2.6,26.6-7.9,38.9c-5,11.9-12.2,22.6-21.4,31.8s-19.9,16.4-31.8,21.4c-12.3,5.2-25.4,7.8-38.9,7.8h0ZM100,11.2c-49,0-88.8,39.8-88.8,88.8s39.8,88.8,88.8,88.8,88.8-39.8,88.8-88.8S149,11.2,100,11.2Z"/>
</svg>