<?xml version="1.0" encoding="UTF-8"?>
<svg id="_图层_1" data-name="图层_1" xmlns="http://www.w3.org/2000/svg" version="1.1" viewBox="0 0 200 200">
  <!-- Generator: Adobe Illustrator 29.0.1, SVG Export Plug-In . SVG Version: 2.1.0 Build 192)  -->
  <defs>
    <style>
      .st0 {
        fill: #fff;
      }
    </style>
  </defs>
  <path class="st0" d="M67.5,134.3c10.7,10.9,11.9,22.6,0,34.6-7.3,7.5-19.2,11.9-35.6,13.9-.8.1-1.7,0-2.6,0-5.8-.7-10-5.8-9.7-11.7v-.8c0,0,.3-1.9.3-1.9,2-15.6,6.4-27,13.4-34.2,11.9-12.1,23.4-10.8,34.1,0h0ZM165.5,20.1l1.9.6,1.8.6c4.5,1.6,8,5.2,9.6,9.7,7.2,21.1,4.9,42.4-6.7,63.6-4.8,8.7-10.9,17-18.4,24.8l-2.1,2.1-2,1.9v.6c-1.4,12.7-11,29.5-28.8,51.1l-1.5,1.9-2.8,3.4c-3.2,3.8-9.2,2.7-11-1.7l-.2-.6-9.9-31.6-.9-.6c-5.6-4-10.9-8.3-15.9-12.9l-2.5-2.3-2.4-2.4c-7.1-7.3-13.5-15.2-19.2-23.7l-.5-.9-32.3-10.4c-4.5-1.5-6-7.1-3.1-10.6l.4-.4.4-.4c26.5-23.2,46.1-34.7,60.2-33.7h.9c0,0,.5.1.5.1l1.2-1.2c6.4-6.3,13-11.7,20-16.1l2.3-1.4,2.1-1.3c19.4-11,39.2-13.7,58.9-8h0ZM106,64.6c-8.1,8.1-8,21.2,0,29.3s21.2,8.1,29.3,0c8.1-8.1,8-21.2,0-29.3-8.1-8.1-21.2-8.1-29.3,0Z"/>
</svg>