<?xml version="1.0" standalone="no"?><!DOCTYPE svg PUBLIC "-//W3C//DTD SVG 1.1//EN" "http://www.w3.org/Graphics/SVG/1.1/DTD/svg11.dtd"><svg t="1752557600105" class="icon" viewBox="0 0 1510 1024" version="1.1" xmlns="http://www.w3.org/2000/svg" p-id="29089" xmlns:xlink="http://www.w3.org/1999/xlink" width="294.921875" height="200"><path d="M866.926254 758.182891h-163.115045c-9.061947 0-12.082596 0-6.041297-9.061947 12.082596-24.165192 24.165192-54.371681 42.289085-78.536873 3.020649-6.041298 6.041298-9.061947 15.103245-9.061947h78.536873c9.061947 0 9.061947-3.020649 9.061947-12.082596v-277.899705c0-9.061947-3.020649-12.082596-12.082596-9.061947H785.368732c-9.061947 0-12.082596-3.020649-12.082596-9.061947V277.899705c0-9.061947 3.020649-12.082596 12.082596-12.082596H993.79351c6.041298 0 9.061947 0 9.061947 9.061947v78.536873c0 6.041298-3.020649 9.061947-9.061947 9.061947h-45.309734c-9.061947 0-12.082596 3.020649-12.082596 12.082596v277.899705c0 6.041298 3.020649 9.061947 9.061947 9.061947h78.536873c9.061947 0 12.082596 3.020649 12.082596 12.082596v75.516224c0 9.061947-3.020649 12.082596-12.082596 12.082596-48.330383-3.020649-102.702065-3.020649-157.073746-3.020649zM302.064897 459.138643v211.445428c0 15.103245-3.020649 33.227139-12.082596 48.330383-18.123894 30.20649-45.309735 39.268437-81.557522 36.247788-36.247788-3.020649-57.39233-21.144543-66.454278-54.371682-9.061947-33.227139-9.061947-27.185841 21.144543-33.227138 12.082596 0 27.185841 6.041298 39.268437-3.020649 6.041298-6.041298 3.020649-21.144543 3.020649-36.247788V232.589971c0-9.061947 3.020649-12.082596 12.082596-12.082596h72.495575c9.061947 0 12.082596 3.020649 12.082596 12.082596v226.548672z" p-id="29090" fill="#2c2c2c"></path><path d="M737.038348 543.716814c-12.082596 21.144543-21.144543 45.309735-33.227139 66.454277-6.041298 15.103245-15.103245 18.123894-27.18584 18.123894H604.129794c-6.041298 0-12.082596 0-18.123894-3.020649-21.144543-6.041298-27.185841-21.144543-21.144543-45.309734 12.082596-36.247788 33.227139-66.454277 48.330383-102.702065 3.020649-6.041298 6.041298-9.061947 9.061947-18.123894H558.820059c-24.165192-6.041298-36.247788-21.144543-24.165192-48.330383 9.061947-27.185841 24.165192-57.39233 39.268437-81.557523 15.103245-27.185841 27.185841-60.412979 45.309734-90.619469 3.020649-6.041298 6.041298-9.061947 15.103245-9.061946h75.516224c9.061947 0 9.061947 3.020649 6.041298 9.061946-18.123894 39.268437-39.268437 75.516224-57.39233 114.784661-3.020649 3.020649-3.020649 6.041298-6.041298 12.082596s0 9.061947 6.041298 12.082596c6.041298 3.020649 6.041298-3.020649 9.061947-6.041298 3.020649-6.041298 6.041298-9.061947 15.103245-9.061947h75.516224c9.061947 0 9.061947 3.020649 6.041298 9.061947-24.165192 48.330383-48.330383 99.681416-72.495575 148.011799-9.061947 18.123894-6.041298 24.165192 15.103244 24.165192h30.20649zM60.412979 712.873156C42.289086 676.625369 24.165192 643.39823 6.041298 607.150442c-3.020649-3.020649-3.020649-6.041298 0-9.061946 12.082596-27.185841 12.082596-57.39233 12.082596-90.619469 3.020649-48.330383 6.041298-93.640118 9.061947-138.949853 0-6.041298 3.020649-9.061947 9.061947-9.061947h81.557522c6.041298 0 9.061947 0 9.061947 9.061947-6.041298 69.474926-9.061947 138.949853-18.123894 211.445428-6.041298 45.309735-21.144543 90.619469-51.351033 126.867256 6.041298 0 3.020649 3.020649 3.020649 6.041298zM419.870206 359.457227h39.268437c9.061947 0 9.061947 3.020649 12.082596 12.082596 3.020649 63.433628 9.061947 126.867257 15.103245 190.300885 0 6.041298 0 15.103245 3.020649 21.144543 6.041298 12.082596 3.020649 24.165192-3.020649 39.268436-12.082596 24.165192-24.165192 54.371681-39.268437 78.536873-3.020649 9.061947-6.041298 9.061947-12.082596 0-21.144543-36.247788-36.247788-69.474926-45.309734-111.764011-9.061947-39.268437-9.061947-78.536873-12.082596-117.80531-3.020649-36.247788-6.041298-66.454277-9.061947-102.702065 0-9.061947 0-12.082596 12.082596-12.082596 12.082596 6.041298 24.165192 3.020649 39.268436 3.020649zM573.923304 758.182891c-18.123894 0-48.330383 3.020649-69.474926-3.020649-9.061947-3.020649-12.082596-6.041298-6.041298-12.082596 15.103245-27.185841 27.185841-54.371681 42.289085-81.557522 3.020649-3.020649 3.020649-9.061947 9.061947-6.041298 21.144543 9.061947 48.330383 6.041298 72.495575 6.041298h63.433629c6.041298 0 9.061947 3.020649 6.041298 9.061947-15.103245 27.185841-27.185841 54.371681-42.289086 84.578171-3.020649 6.041298-6.041298 6.041298-12.082596 6.041298-18.123894-3.020649-36.247788-3.020649-63.433628-3.020649zM1434.80826 359.457227c-33.227139 0-33.227139 0-33.227139-33.227139 0-9.061947 0-21.144543 3.020649-33.227138 6.041298-24.165192 27.185841-39.268437 57.39233-36.247788 21.144543 3.020649 42.289086 24.165192 42.289086 51.351033s-18.123894 45.309735-45.309735 48.330383c-9.061947 3.020649-15.103245 3.020649-24.165191 3.020649zM1241.486726 652.460177v96.660767c0 9.061947-3.020649 12.082596-12.082596 12.082596h-75.516224c-9.061947 0-12.082596-3.020649-12.082596-12.082596v-190.300885c0-9.061947-3.020649-12.082596-12.082596-12.082596H1057.227139c-9.061947 0-12.082596 0-12.082596-9.061947v-78.536873c0-9.061947 3.020649-9.061947 12.082596-9.061947h75.516224c9.061947 0 12.082596-3.020649 9.061947-12.082596v-60.412979c0-9.061947-3.020649-9.061947-12.082596-9.061947h-45.309735c-6.041298 0-9.061947 0-9.061947-9.061947V280.920354c0-6.041298 3.020649-9.061947 9.061947-9.061947h45.309735c6.041298 0 9.061947-3.020649 9.061947-9.061947 0-21.144543 0-21.144543 24.165192-21.144543h63.433628c6.041298 0 9.061947 3.020649 9.061947 9.061947 0 21.144543 0 21.144543 21.144543 21.144543 27.185841 0 54.371681 6.041298 75.516224 18.123894 33.227139 18.123894 45.309735 51.351032 45.309734 84.578171v63.433628c0 9.061947 3.020649 12.082596 12.082596 12.082596 36.247788 0 63.433628 9.061947 84.578171 39.268437 12.082596 15.103245 18.123894 39.268437 18.123894 57.39233v126.867257c0 48.330383-27.185841 81.557522-75.516224 90.619469-18.123894 3.020649-42.289086 3.020649-60.41298-3.020649-33.227139-9.061947-54.371681-39.268437-57.39233-72.495575 0-9.061947 3.020649-6.041298 9.061947-6.041298h78.536873c9.061947 0 12.082596-3.020649 12.082596-12.082596v-81.557522c0-21.144543-12.082596-36.247788-36.247788-36.247788h-120.825958c-6.041298 0-9.061947 3.020649-9.061947 9.061947 9.061947 24.165192 9.061947 54.371681 9.061947 90.619469z m51.351032-250.713864c0-42.289086 3.020649-42.289086-45.309734-42.289086-6.041298 0-9.061947 3.020649-9.061947 9.061947v66.454277c0 6.041298 3.020649 9.061947 9.061947 9.061947h36.247787c6.041298 0 9.061947-3.020649 9.061947-9.061947v-27.18584-6.041298z" p-id="29091" fill="#2c2c2c"></path></svg>