<?xml version="1.0" encoding="UTF-8"?>
<svg id="_图层_1" data-name="图层_1" xmlns="http://www.w3.org/2000/svg" version="1.1" viewBox="0 0 200.2 200">
  <!-- Generator: Adobe Illustrator 29.0.1, SVG Export Plug-In . SVG Version: 2.1.0 Build 192)  -->
  <defs>
    <style>
      .st0 {
        fill: #fff;
      }
    </style>
  </defs>
  <path class="st0" d="M174.6,27.4H25.4c-12.3,0-22.3,10-22.3,22.3v100.5c0,12.3,10,22.3,22.3,22.3h149.3c12.3,0,22.3-10,22.3-22.3V49.8c0-12.3-10-22.3-22.4-22.3h0ZM127.2,71.8h31c2.5,0,4.7,3.4,4.7,5.8s-2.3,5.8-4.7,5.8h-31c-2.5,0-4.7-3.4-4.7-5.8s2.3-5.8,4.7-5.8h0ZM127.2,96.6h31c2.5,0,4.7,3.4,4.7,5.8s-2.3,5.8-4.7,5.8h-31c-2.5,0-4.7-3.4-4.7-5.8s2.3-5.8,4.7-5.8h0ZM26,139.8c-2.4-.5-4-2.8-3.5-5.2,2.9-15,14.1-26.6,28.3-30.7-7.3-3.9-12.4-11.6-12.4-20.5,0-12.9,10.5-23.4,23.4-23.4s23.4,10.5,23.4,23.4-5.1,16.6-12.4,20.5c14.2,4.1,25.4,15.7,28.3,30.8.5,2.4-1.1,4.8-3.6,5.2h0c-.3,0-.6,0-.8,0M173.2,133.1h-45.9c-2.5,0-4.7-3.4-4.7-5.8s2.3-5.8,4.7-5.8h45.9c2.5,0,4.7,3.4,4.7,5.8s-2.3,5.8-4.7,5.8Z"/>
</svg>