<?xml version="1.0" encoding="UTF-8"?>
<svg id="_图层_1" xmlns="http://www.w3.org/2000/svg" version="1.1" viewBox="0 0 200 200">
  <!-- Generator: Adobe Illustrator 29.0.1, SVG Export Plug-In . SVG Version: 2.1.0 Build 192)  -->
  <defs>
    <style>
      .st0 {
        fill: #fff;
      }
    </style>
  </defs>
  <path class="st0" d="M166.5,130.3c-8.7-9.2-19.2-16.4-30.7-21.3-6.9,8.2-16.4,13.7-27,15.7h0l-4.4,4.4,4.4,13.2-8.8,46.3-8.8-46.3,4.4-13.2-4.4-4.4h0c-10.8-2-20.2-7.6-27-15.7-11.7,4.9-22.1,12.2-30.7,21.4-5.5,5.9-8.7,13.5-8.7,21.7v26.5c0,8.3,6.8,15,14.9,15h120.1c8.3,0,15-6.8,15-14.9h0v-26.5c0-8-3-15.8-8.7-21.7h0v-.3Z"/>
  <path class="st0" d="M34.2,38.9l21.9,8.9v11.5c0,5.4,3,10.3,7.8,12.8.3,0,.5.3.8.4v6.4c0,19.6,15.8,35.4,35.4,35.4s35.4-15.8,35.4-35.4v-6.4c.3,0,.5-.3.8-.4,4.8-2.5,7.8-7.4,7.8-12.8v-11.5l21.9-8.9c3.4-1.4,3.4-6.1,0-7.5l-56.4-22.9c-6-2.4-12.8-2.4-18.8,0l-56.6,23.1c-3.3,1.4-3.3,6.1,0,7.4h.1ZM135.8,59.3c0,2.3-1.3,4.3-3.3,5.4-6.1,3.1-18.7,8.5-32.4,8.5s-26.1-5.4-32.4-8.5c-2-1-3.3-3.1-3.3-5.3v-8l26.2,10.7c6,2.5,12.8,2.5,18.8,0l26.2-10.7v8h0Z"/>
</svg>