<?xml version="1.0" standalone="no"?><!DOCTYPE svg PUBLIC "-//W3C//DTD SVG 1.1//EN" "http://www.w3.org/Graphics/SVG/1.1/DTD/svg11.dtd"><svg t="1752557193315" class="icon" viewBox="0 0 1024 1024" version="1.1" xmlns="http://www.w3.org/2000/svg" p-id="18057" xmlns:xlink="http://www.w3.org/1999/xlink" width="200" height="200"><path d="M554.688 10.24h-0.064c61.888 31.616 122.304 53.44 181.312 65.024a559.104 559.104 0 0 0 131.136 10.304C916.48 83.84 958.08 121.152 960 168.96v357.248c0 156.672-85.12 301.824-224 382.336l-177.792 103.168a93.12 93.12 0 0 1-92.416 0l-177.728-103.168C149.184 828.032 64.064 682.88 64 526.272V172.8c0-47.808 40.064-86.592 89.536-86.656h3.2A566.016 566.016 0 0 0 288 75.2c63.616-12.8 124.928-34.624 181.952-64.64 26.368-13.952 58.24-14.08 84.736-0.384zM512 256L433.92 378.176 288 384l67.84 128-67.84 128 145.92 5.824L512 768l78.08-122.176L736 640l-67.84-128 67.84-128-145.92-5.824L512 256z" fill="#ffffff" p-id="18058"></path></svg>