<?xml version="1.0" standalone="no"?><!DOCTYPE svg PUBLIC "-//W3C//DTD SVG 1.1//EN" "http://www.w3.org/Graphics/SVG/1.1/DTD/svg11.dtd"><svg t="1752557819566" class="icon" viewBox="0 0 1025 1024" version="1.1" xmlns="http://www.w3.org/2000/svg" p-id="33208" xmlns:xlink="http://www.w3.org/1999/xlink" width="200.1953125" height="200"><path d="M513.43328 32C228.63328 32 1.43328 243.2 1.43328 505.6c0 83.2 22.4 160 60.8 230.4 6.4 9.6 9.6 22.4 3.2 38.4L1.43328 955.2c-6.4 16 9.6 32 28.8 28.8l182.4-70.4c9.6-3.2 22.4-3.2 35.2 3.2 76.8 44.8 169.6 70.4 265.6 70.4 284.8-3.2 512-214.4 512-476.8C1022.23328 243.2 795.03328 32 513.43328 32z m233.6 654.4c-12.8 28.8-60.8 54.4-83.2 54.4-22.4 0-22.4 16-144-35.2-121.6-54.4-195.2-185.6-201.6-192-6.4-9.6-48-67.2-44.8-128s35.2-89.6 48-99.2c12.8-12.8 25.6-12.8 32-12.8h22.4c6.4 0 19.2 0 25.6 22.4 9.6 25.6 32 86.4 35.2 92.8 3.2 6.4 3.2 12.8 0 22.4-3.2 9.6-6.4 12.8-12.8 19.2-6.4 6.4-12.8 16-19.2 22.4-6.4 6.4-12.8 12.8-6.4 25.6s28.8 54.4 64 86.4c44.8 44.8 83.2 57.6 96 64 12.8 6.4 19.2 6.4 25.6-3.2 6.4-6.4 32-35.2 41.6-48s16-9.6 28.8-6.4c9.6 3.2 70.4 35.2 83.2 41.6 12.8 6.4 19.2 9.6 22.4 16-3.2 6.4-3.2 32-12.8 57.6z" fill="#101010" p-id="33209"></path></svg>